<svg xmlns="http://www.w3.org/2000/svg" viewBox="0 0 230.67 39.13"><defs><style>.cls-1{fill:#888a8c;}.cls-2{fill:#00468b;}</style></defs><title>logo-</title><g id="Слой_2" data-name="Слой 2"><g id="Layer_1" data-name="Layer 1"><path class="cls-1" d="M228.18,7.8l.69-2.12a.86.86,0,0,0-.05-.72,1.59,1.59,0,0,0-.52-.58,2.9,2.9,0,0,0-.79-.38,3.23,3.23,0,0,0-.9-.14h-6.69l.18-.57a.94.94,0,0,1,.25-.36.59.59,0,0,1,.4-.2h9.05L230.67,0H218a4,4,0,0,0-1.26.21,5.39,5.39,0,0,0-1.15.58,4.53,4.53,0,0,0-.92.82,2.62,2.62,0,0,0-.54.93l-.53,1.62a1.3,1.3,0,0,0,0,.85,2.26,2.26,0,0,0,.49.75,2.85,2.85,0,0,0,.76.55,2,2,0,0,0,.86.21h6.61l-.18.61a1.39,1.39,0,0,1-.24.36.57.57,0,0,1-.41.2h-9l-.89,2.73h12.71a3.61,3.61,0,0,0,1.27-.24,5.3,5.3,0,0,0,1.18-.62,5.51,5.51,0,0,0,.94-.85,2.83,2.83,0,0,0,.54-.91"/><path class="cls-1" d="M211.06,7.8l.69-2.12A.9.9,0,0,0,211.7,5a1.68,1.68,0,0,0-.52-.58,3.12,3.12,0,0,0-1.7-.52h-6.69l.19-.57a.79.79,0,0,1,.24-.36.61.61,0,0,1,.41-.2h9L213.55,0H200.84a3.86,3.86,0,0,0-1.25.21,5,5,0,0,0-1.15.58,4.28,4.28,0,0,0-.92.82,2.62,2.62,0,0,0-.54.93l-.54,1.62a1.24,1.24,0,0,0,0,.85,2.23,2.23,0,0,0,.48.75,3,3,0,0,0,.76.55,2,2,0,0,0,.87.21h6.61l-.19.61a1,1,0,0,1-.24.36.56.56,0,0,1-.41.2h-9l-.89,2.73h12.7a3.57,3.57,0,0,0,1.27-.24,5.3,5.3,0,0,0,1.18-.62,5.51,5.51,0,0,0,.94-.85A2.7,2.7,0,0,0,211.06,7.8Z"/><path class="cls-1" d="M185.17,0h11.29l-.87,2.73H188a.62.62,0,0,0-.42.22,1.2,1.2,0,0,0-.26.37.41.41,0,0,0,0,.39.45.45,0,0,0,.42.19h7.47l-.86,2.66h-7.63a.27.27,0,0,0-.1,0l-.18.12-.19.15L186.1,7a.18.18,0,0,0-.06.13.24.24,0,0,0,0,.08.08.08,0,0,1,0,0,.84.84,0,0,0,.17.27c.09.11.14.16.17.16H194l-.89,2.73H181.64a2.38,2.38,0,0,1-1-.19,2.49,2.49,0,0,1-.77-.52,1.82,1.82,0,0,1-.45-.72,1.38,1.38,0,0,1,0-.85l1.79-5.48a2.82,2.82,0,0,1,.54-1,5,5,0,0,1,.93-.85A5,5,0,0,1,183.9.23,3.79,3.79,0,0,1,185.17,0Z"/><path class="cls-1" d="M160.7,10.42,164.08,0h13a3,3,0,0,1,1.48.3,1.62,1.62,0,0,1,.71.76,2,2,0,0,1,.14,1,4.92,4.92,0,0,1-.21,1.08,6.86,6.86,0,0,1-.42,1,5.33,5.33,0,0,1-.64,1,3.67,3.67,0,0,1-.83.75,1.84,1.84,0,0,1-1,.3.36.36,0,0,0-.18.24c0,.09,0,.14,0,.15l2.29,3.88H170.7l-1.32-2.28a1.38,1.38,0,0,0-.45-.45,1.2,1.2,0,0,0-.67-.19h0l-.27.08c-.08,0-.12,0-.12,0l-.91,2.79Z"/><path class="cls-1" d="M169.43,2.73l-.66,2h2.93a.78.78,0,0,0,.42-.11,1.54,1.54,0,0,0,.36-.27,1.87,1.87,0,0,0,.29-.34,1.34,1.34,0,0,0,.17-.34,1.14,1.14,0,0,0,.06-.29.93.93,0,0,0,0-.33.54.54,0,0,0-.16-.26.41.41,0,0,0-.31-.1Z"/><path class="cls-1" d="M143.19,10.42,146.57,0h12.82a2.44,2.44,0,0,1,1.46.38,2.08,2.08,0,0,1,.74.93,2.9,2.9,0,0,1,.18,1.18,4.23,4.23,0,0,1-.19,1.13A6.94,6.94,0,0,1,161,5a6,6,0,0,1-1,1.25,4.86,4.86,0,0,1-1.32.89A4,4,0,0,1,157,7.5h-6.61l-1,2.92Z"/><path class="cls-1" d="M151.92,2.73l-.67,2h2.94a.86.86,0,0,0,.41-.1,1.78,1.78,0,0,0,.37-.26,1.81,1.81,0,0,0,.28-.34,2.3,2.3,0,0,0,.18-.34c0-.08,0-.18.06-.29a.91.91,0,0,0,0-.33.74.74,0,0,0-.16-.27.44.44,0,0,0-.32-.11Z"/><path class="cls-1" d="M126.45,10.42h2.81a9.32,9.32,0,0,0,1.29-.09,4.3,4.3,0,0,0,1.29-.41,11.48,11.48,0,0,0,1-.59A7.62,7.62,0,0,0,134,8.45l.07.08a.35.35,0,0,1,.06.09,7.11,7.11,0,0,0,.43.57,4.61,4.61,0,0,0,.58.59,3,3,0,0,0,.7.45,1.85,1.85,0,0,0,.84.19h5.16l.89-2.75h-1a2.25,2.25,0,0,1-1.1-.3,3.08,3.08,0,0,1-.93-.75,3,3,0,0,1-.57-1,1.45,1.45,0,0,1,0-1,1.63,1.63,0,0,1,.41-.55,9.71,9.71,0,0,1,.74-.63c.28-.2.54-.37.79-.52a1.42,1.42,0,0,1,.55-.21h2.73L145.23,0h-4.72a4.28,4.28,0,0,0-1.21.44,9.74,9.74,0,0,0-1,.61,5.33,5.33,0,0,0-.66.54l-.26.23a2.62,2.62,0,0,1-.3-.49,2.78,2.78,0,0,0-.4-.61A2.57,2.57,0,0,0,136,.21,2.12,2.12,0,0,0,135,0h-5.21l-.89,2.75h1.19a3,3,0,0,1,.49.05,5.36,5.36,0,0,1,.54.14,1.25,1.25,0,0,1,.44.26,5.23,5.23,0,0,1,.78,1L133,5.33a2.77,2.77,0,0,1-.74.77,10.64,10.64,0,0,1-1.1.75,8.29,8.29,0,0,1-1.08.58,2.12,2.12,0,0,1-.72.22h-2Z"/><path class="cls-1" d="M117.2,0h11.3l-.88,2.73H120a.58.58,0,0,0-.42.22,1.5,1.5,0,0,0-.27.37.42.42,0,0,0,0,.39.45.45,0,0,0,.42.19h7.46l-.85,2.66h-7.63l-.11,0-.17.12-.19.15-.15.13a.21.21,0,0,0,0,.13.12.12,0,0,0,0,.08.08.08,0,0,1,0,0,.7.7,0,0,0,.17.27c.08.11.14.16.16.16H126l-.89,2.73H113.68a2.38,2.38,0,0,1-1-.19,2.49,2.49,0,0,1-.77-.52A1.82,1.82,0,0,1,111.5,9a1.38,1.38,0,0,1,0-.85l1.78-5.48a2.86,2.86,0,0,1,.55-1,5,5,0,0,1,.93-.85,4.78,4.78,0,0,1,1.16-.62A3.73,3.73,0,0,1,117.2,0Z"/><path class="cls-2" d="M206.58,22.41l.68-2.11a.9.9,0,0,0,0-.72,1.65,1.65,0,0,0-.52-.57,2.76,2.76,0,0,0-.79-.38,3.23,3.23,0,0,0-.9-.14h-6.66l.19-.57a.73.73,0,0,1,.24-.35.57.57,0,0,1,.41-.21h9l.87-2.71H196.41a3.8,3.8,0,0,0-1.24.21,4.71,4.71,0,0,0-2.07,1.39,2.75,2.75,0,0,0-.53.93L192,18.79a1.34,1.34,0,0,0,0,.84,2.29,2.29,0,0,0,.48.75,2.76,2.76,0,0,0,.76.54,2,2,0,0,0,.86.22h6.58l-.19.61a1.09,1.09,0,0,1-.24.35.55.55,0,0,1-.4.2h-9L190,25h12.64a3.61,3.61,0,0,0,1.27-.24,5.45,5.45,0,0,0,1.17-.62,5,5,0,0,0,.93-.84,2.7,2.7,0,0,0,.55-.91"/><path class="cls-2" d="M180.81,14.65h11.24l-.87,2.71h-7.59a.6.6,0,0,0-.42.23,1.21,1.21,0,0,0-.27.37.4.4,0,0,0,0,.38.44.44,0,0,0,.41.19h7.43l-.85,2.64h-7.59l-.1,0a.94.94,0,0,0-.18.12l-.19.15a.92.92,0,0,0-.14.13.16.16,0,0,0-.06.13.14.14,0,0,0,0,.07.07.07,0,0,1,0,.06.94.94,0,0,0,.17.26c.09.11.14.16.17.16h7.59L188.69,25H177.3a2.38,2.38,0,0,1-1-.2,2.46,2.46,0,0,1-.77-.51,1.64,1.64,0,0,1-.44-.72,1.31,1.31,0,0,1,0-.85l1.77-5.45a2.66,2.66,0,0,1,.55-.95,4.67,4.67,0,0,1,.92-.85,4.75,4.75,0,0,1,1.16-.61A3.41,3.41,0,0,1,180.81,14.65Z"/><path class="cls-2" d="M173.42,14.65h-10a3.41,3.41,0,0,0-1.25.23,4.75,4.75,0,0,0-1.16.61,4.67,4.67,0,0,0-.92.85,2.66,2.66,0,0,0-.55.95l-1.77,5.45a1.31,1.31,0,0,0,0,.85,1.64,1.64,0,0,0,.44.72,2.46,2.46,0,0,0,.77.51,2.38,2.38,0,0,0,1,.2H170.2a3.35,3.35,0,0,0,1.08-.2,5,5,0,0,0,1.09-.51,4.31,4.31,0,0,0,.91-.72,2.17,2.17,0,0,0,.55-.85l1.77-5.45a1.93,1.93,0,0,0,.06-.95,1.86,1.86,0,0,0-.37-.85,2.22,2.22,0,0,0-.77-.61A2.41,2.41,0,0,0,173.42,14.65Z"/><path class="cls-2" d="M164.2,21.88,165.47,18a1.15,1.15,0,0,1,.23-.35.71.71,0,0,1,.42-.25h2.79a.26.26,0,0,1,.29.23.75.75,0,0,1,0,.37l-1.28,3.92a1.86,1.86,0,0,1-.28.26.51.51,0,0,1-.33.16h-2.75c-.19,0-.3-.06-.33-.17A.45.45,0,0,1,164.2,21.88Z"/><path class="cls-2" d="M139.19,25l3.36-10.37h13a3.06,3.06,0,0,1,1.47.29,1.64,1.64,0,0,1,.7.76,2.15,2.15,0,0,1,.15,1,4.84,4.84,0,0,1-.22,1.07,5.41,5.41,0,0,1-.41,1,5.25,5.25,0,0,1-.64,1,3.67,3.67,0,0,1-.83.75,1.8,1.8,0,0,1-1,.3.36.36,0,0,0-.18.24c0,.08,0,.13,0,.14L156.8,25h-7.67l-1.31-2.28a1.54,1.54,0,0,0-.44-.44,1.23,1.23,0,0,0-.67-.19h0l-.27.08c-.08,0-.12,0-.12,0l-.9,2.78Z"/><path class="cls-2" d="M147.87,17.36l-.66,2h2.92a.88.88,0,0,0,.42-.11l.36-.27a2.2,2.2,0,0,0,.28-.34,2.3,2.3,0,0,0,.18-.34,1.92,1.92,0,0,0,0-.29.74.74,0,0,0,0-.33.63.63,0,0,0-.16-.25.46.46,0,0,0-.32-.11Z"/><path class="cls-2" d="M130,14.65h11.24l-.87,2.71h-7.6a.6.6,0,0,0-.41.23,1.21,1.21,0,0,0-.27.37.4.4,0,0,0,.05.38.44.44,0,0,0,.41.19H140l-.85,2.64h-7.59l-.11,0-.17.12-.19.15a.92.92,0,0,0-.14.13.16.16,0,0,0-.06.13.14.14,0,0,0,0,.07.07.07,0,0,1,0,.06.94.94,0,0,0,.17.26c.09.11.14.16.17.16h7.59L137.86,25H126.47a2.38,2.38,0,0,1-1-.2,2.46,2.46,0,0,1-.77-.51,1.64,1.64,0,0,1-.44-.72,1.31,1.31,0,0,1,0-.85l1.77-5.45a2.78,2.78,0,0,1,.54-.95,5,5,0,0,1,.93-.85,4.87,4.87,0,0,1,1.15-.61A3.5,3.5,0,0,1,130,14.65Z"/><polygon class="cls-2" points="119.39 14.65 125.62 14.65 122.25 25.02 116.03 25.02 117.28 21.17 114.29 21.17 113.03 25.02 106.82 25.02 110.19 14.65 116.39 14.65 115.14 18.53 118.13 18.53 119.39 14.65"/><polygon class="cls-2" points="95.15 39.13 103.1 14.65 54.55 14.65 46.6 39.13 66.13 39.13 70.87 24.62 80.29 24.62 75.55 39.13 95.15 39.13"/><path class="cls-2" d="M50.37,14.65H5.52L.36,30.55a6.06,6.06,0,0,0-.25,3.21,6.36,6.36,0,0,0,1.26,2.72,7.38,7.38,0,0,0,2.3,1.92,6.12,6.12,0,0,0,3,.73H42.42l3.34-10.25H21.91c-.09,0-.26-.2-.49-.6a6,6,0,0,1-.49-1,.25.25,0,0,0,.07-.21.77.77,0,0,1,.07-.28.66.66,0,0,1,.21-.48,2.82,2.82,0,0,1,.46-.49l.62-.56a3.6,3.6,0,0,1,.6-.45,1.08,1.08,0,0,1,.34-.18H47.16Z"/><polygon class="cls-1" points="56.02 10.25 75.55 10.25 78.83 0 59.3 0 56.02 10.25"/><polygon class="cls-1" points="88.24 0 84.96 10.25 104.56 10.25 107.84 0 88.24 0"/><path class="cls-1" d="M19.82,0a10,10,0,0,0-4,.87A16.54,16.54,0,0,0,12,3.17a17.73,17.73,0,0,0-3.1,3.21A11.87,11.87,0,0,0,7.05,10L7,10.25H51.83L55.11,0Z"/></g></g></svg>