<svg xmlns="http://www.w3.org/2000/svg" viewBox="0 0 231.86 40.13"><defs><style>.cls-1{fill:#a5a7a6;stroke:#000;stroke-miterlimit:10;}</style></defs><title>logo-1</title><g id="Слой_2" data-name="Слой 2"><g id="Layer_1" data-name="Layer 1"><path class="cls-1" d="M228.68,8.3l.69-2.12a.86.86,0,0,0-.05-.72,1.59,1.59,0,0,0-.52-.58A2.9,2.9,0,0,0,228,4.5a3.23,3.23,0,0,0-.9-.14h-6.69l.18-.57a.94.94,0,0,1,.25-.36.59.59,0,0,1,.4-.2h9.05L231.17.5h-12.7a4,4,0,0,0-1.26.21,5.39,5.39,0,0,0-1.15.58,4.53,4.53,0,0,0-.92.82,2.62,2.62,0,0,0-.54.93l-.53,1.62a1.3,1.3,0,0,0,0,.85,2.26,2.26,0,0,0,.49.75,2.85,2.85,0,0,0,.76.55,2,2,0,0,0,.86.21h6.61l-.18.61a1.39,1.39,0,0,1-.24.36.57.57,0,0,1-.41.2h-9L212,10.92h12.71a3.61,3.61,0,0,0,1.27-.24,5.3,5.3,0,0,0,1.18-.62,5.51,5.51,0,0,0,.94-.85,2.83,2.83,0,0,0,.54-.91"/><path class="cls-1" d="M211.56,8.3l.69-2.12a.9.9,0,0,0-.05-.72,1.68,1.68,0,0,0-.52-.58,3.12,3.12,0,0,0-1.7-.52h-6.69l.19-.57a.79.79,0,0,1,.24-.36.61.61,0,0,1,.41-.2h9L214.05.5H201.34a3.86,3.86,0,0,0-1.25.21,5,5,0,0,0-1.15.58,4.28,4.28,0,0,0-.92.82,2.62,2.62,0,0,0-.54.93l-.54,1.62a1.24,1.24,0,0,0,0,.85,2.23,2.23,0,0,0,.48.75,3,3,0,0,0,.76.55,2,2,0,0,0,.87.21h6.61l-.19.61a1,1,0,0,1-.24.36.56.56,0,0,1-.41.2h-9l-.89,2.73h12.7a3.57,3.57,0,0,0,1.27-.24,5.3,5.3,0,0,0,1.18-.62,5.51,5.51,0,0,0,.94-.85A2.7,2.7,0,0,0,211.56,8.3Z"/><path class="cls-1" d="M185.67.5H197l-.87,2.73h-7.64a.62.62,0,0,0-.42.22,1.2,1.2,0,0,0-.26.37.41.41,0,0,0,0,.39.45.45,0,0,0,.42.19h7.47l-.86,2.66h-7.63a.27.27,0,0,0-.1,0l-.18.12-.19.15-.14.13a.18.18,0,0,0-.06.13.24.24,0,0,0,0,.08.08.08,0,0,1,0,0,.84.84,0,0,0,.17.27c.09.11.14.16.17.16h7.63l-.89,2.73H182.14a2.38,2.38,0,0,1-1-.19,2.49,2.49,0,0,1-.77-.52,1.82,1.82,0,0,1-.45-.72,1.38,1.38,0,0,1,0-.85l1.79-5.48a2.82,2.82,0,0,1,.54-1,5,5,0,0,1,.93-.85A5,5,0,0,1,184.4.73,3.79,3.79,0,0,1,185.67.5Z"/><path class="cls-1" d="M161.2,10.92,164.58.5h13a3,3,0,0,1,1.48.3,1.62,1.62,0,0,1,.71.76,2,2,0,0,1,.14,1,4.92,4.92,0,0,1-.21,1.08,6.86,6.86,0,0,1-.42,1,5.33,5.33,0,0,1-.64,1,3.67,3.67,0,0,1-.83.75,1.84,1.84,0,0,1-1,.3.36.36,0,0,0-.18.24c0,.09,0,.14,0,.15l2.29,3.88H171.2l-1.32-2.28a1.38,1.38,0,0,0-.45-.45,1.2,1.2,0,0,0-.67-.19h0l-.27.08c-.08,0-.12,0-.12.05l-.91,2.79Z"/><path class="cls-1" d="M169.93,3.23l-.66,2h2.93a.78.78,0,0,0,.42-.11,1.54,1.54,0,0,0,.36-.27,1.87,1.87,0,0,0,.29-.34,1.34,1.34,0,0,0,.17-.34,1.14,1.14,0,0,0,.06-.29.93.93,0,0,0,0-.33.54.54,0,0,0-.16-.26.41.41,0,0,0-.31-.1Z"/><path class="cls-1" d="M143.69,10.92,147.07.5h12.82a2.44,2.44,0,0,1,1.46.38,2.08,2.08,0,0,1,.74.93A2.9,2.9,0,0,1,162.27,3a4.23,4.23,0,0,1-.19,1.13,6.94,6.94,0,0,1-.63,1.4,6,6,0,0,1-1,1.25,4.86,4.86,0,0,1-1.32.89,4,4,0,0,1-1.68.34h-6.61l-1,2.92Z"/><path class="cls-1" d="M152.42,3.23l-.67,2h2.94a.86.86,0,0,0,.41-.1,1.78,1.78,0,0,0,.37-.26,1.81,1.81,0,0,0,.28-.34,2.3,2.3,0,0,0,.18-.34c0-.08,0-.18.06-.29a.91.91,0,0,0,0-.33.74.74,0,0,0-.16-.27.44.44,0,0,0-.32-.11Z"/><path class="cls-1" d="M127,10.92h2.81a9.32,9.32,0,0,0,1.29-.09,4.3,4.3,0,0,0,1.29-.41,11.48,11.48,0,0,0,1-.59A7.62,7.62,0,0,0,134.51,9l.07.08a.35.35,0,0,1,.06.09,7.11,7.11,0,0,0,.43.57,4.61,4.61,0,0,0,.58.59,3,3,0,0,0,.7.45,1.85,1.85,0,0,0,.84.19h5.16l.89-2.75h-1a2.25,2.25,0,0,1-1.1-.3,3.08,3.08,0,0,1-.93-.75,3,3,0,0,1-.57-1,1.45,1.45,0,0,1,0-1,1.63,1.63,0,0,1,.41-.55,9.71,9.71,0,0,1,.74-.63c.28-.2.54-.37.79-.52a1.42,1.42,0,0,1,.55-.21h2.73L145.73.5H141a4.28,4.28,0,0,0-1.21.44,9.74,9.74,0,0,0-1,.61,5.33,5.33,0,0,0-.66.54l-.26.23a2.62,2.62,0,0,1-.3-.49,2.78,2.78,0,0,0-.4-.61,2.57,2.57,0,0,0-.64-.51,2.12,2.12,0,0,0-1-.21h-5.21l-.89,2.75h1.19a3,3,0,0,1,.49.05,5.36,5.36,0,0,1,.54.14,1.25,1.25,0,0,1,.44.26,5.23,5.23,0,0,1,.78,1l.59,1.08a2.77,2.77,0,0,1-.74.77,10.64,10.64,0,0,1-1.1.75,8.29,8.29,0,0,1-1.08.58,2.12,2.12,0,0,1-.72.22h-2Z"/><path class="cls-1" d="M117.7.5H129l-.88,2.73h-7.63a.58.58,0,0,0-.42.22,1.5,1.5,0,0,0-.27.37.42.42,0,0,0,0,.39.45.45,0,0,0,.42.19h7.46l-.85,2.66h-7.63l-.11,0-.17.12-.19.15-.15.13a.21.21,0,0,0,0,.13.12.12,0,0,0,0,.08.08.08,0,0,1,0,0,.7.7,0,0,0,.17.27c.08.11.14.16.16.16h7.64l-.89,2.73H114.18a2.38,2.38,0,0,1-1-.19,2.49,2.49,0,0,1-.77-.52,1.82,1.82,0,0,1-.45-.72,1.38,1.38,0,0,1,0-.85l1.78-5.48a2.86,2.86,0,0,1,.55-1,5,5,0,0,1,.93-.85,4.78,4.78,0,0,1,1.16-.62A3.73,3.73,0,0,1,117.7.5Z"/><path class="cls-1" d="M207.08,22.91l.68-2.11a.9.9,0,0,0,0-.72,1.65,1.65,0,0,0-.52-.57,2.76,2.76,0,0,0-.79-.38,3.23,3.23,0,0,0-.9-.14h-6.66l.19-.57a.73.73,0,0,1,.24-.35.57.57,0,0,1,.41-.21h9l.87-2.71H196.91a3.8,3.8,0,0,0-1.24.21,4.71,4.71,0,0,0-2.07,1.39,2.75,2.75,0,0,0-.53.93l-.54,1.61a1.34,1.34,0,0,0,0,.84,2.29,2.29,0,0,0,.48.75,2.76,2.76,0,0,0,.76.54,2,2,0,0,0,.86.22h6.58l-.19.61a1.09,1.09,0,0,1-.24.35.55.55,0,0,1-.4.2h-9l-.89,2.72h12.64a3.61,3.61,0,0,0,1.27-.24,5.45,5.45,0,0,0,1.17-.62,5,5,0,0,0,.93-.84,2.7,2.7,0,0,0,.55-.91"/><path class="cls-1" d="M181.31,15.15h11.24l-.87,2.71h-7.59a.6.6,0,0,0-.42.23,1.21,1.21,0,0,0-.27.37.4.4,0,0,0,0,.38.44.44,0,0,0,.41.19h7.43l-.85,2.64h-7.59l-.1,0a.94.94,0,0,0-.18.12l-.19.15a.92.92,0,0,0-.14.13.16.16,0,0,0-.06.13.14.14,0,0,0,0,.07.07.07,0,0,1,0,.06.94.94,0,0,0,.17.26c.09.11.14.16.17.16h7.59l-.88,2.72H177.8a2.38,2.38,0,0,1-1-.2,2.46,2.46,0,0,1-.77-.51,1.64,1.64,0,0,1-.44-.72,1.31,1.31,0,0,1,0-.85l1.77-5.45a2.66,2.66,0,0,1,.55-.95,4.67,4.67,0,0,1,.92-.85,4.75,4.75,0,0,1,1.16-.61A3.41,3.41,0,0,1,181.31,15.15Z"/><path class="cls-1" d="M173.92,15.15h-10a3.41,3.41,0,0,0-1.25.23,4.75,4.75,0,0,0-1.16.61,4.67,4.67,0,0,0-.92.85,2.66,2.66,0,0,0-.55.95l-1.77,5.45a1.31,1.31,0,0,0,0,.85,1.64,1.64,0,0,0,.44.72,2.46,2.46,0,0,0,.77.51,2.38,2.38,0,0,0,1,.2H170.7a3.35,3.35,0,0,0,1.08-.2,5,5,0,0,0,1.09-.51,4.31,4.31,0,0,0,.91-.72,2.17,2.17,0,0,0,.55-.85l1.77-5.45a1.93,1.93,0,0,0,.06-.95,1.86,1.86,0,0,0-.37-.85,2.22,2.22,0,0,0-.77-.61A2.41,2.41,0,0,0,173.92,15.15Z"/><path class="cls-1" d="M164.7,22.38,166,18.46a1.15,1.15,0,0,1,.23-.35.71.71,0,0,1,.42-.25h2.79a.26.26,0,0,1,.29.23.75.75,0,0,1,0,.37l-1.28,3.92a1.86,1.86,0,0,1-.28.26.51.51,0,0,1-.33.16h-2.75c-.19,0-.3-.06-.33-.17A.45.45,0,0,1,164.7,22.38Z"/><path class="cls-1" d="M139.69,25.52l3.36-10.37h13a3.06,3.06,0,0,1,1.47.29,1.64,1.64,0,0,1,.7.76,2.15,2.15,0,0,1,.15,1,4.84,4.84,0,0,1-.22,1.07,5.41,5.41,0,0,1-.41,1,5.25,5.25,0,0,1-.64,1,3.67,3.67,0,0,1-.83.75,1.8,1.8,0,0,1-1,.3.36.36,0,0,0-.18.24c0,.08,0,.13,0,.14l2.27,3.87h-7.67l-1.31-2.28a1.54,1.54,0,0,0-.44-.44,1.23,1.23,0,0,0-.67-.19h0l-.27.08c-.08,0-.12,0-.12,0l-.9,2.78Z"/><path class="cls-1" d="M148.37,17.86l-.66,2h2.92a.88.88,0,0,0,.42-.11l.36-.27a2.2,2.2,0,0,0,.28-.34,2.3,2.3,0,0,0,.18-.34,1.92,1.92,0,0,0,0-.29.74.74,0,0,0,0-.33.63.63,0,0,0-.16-.25.46.46,0,0,0-.32-.11Z"/><path class="cls-1" d="M130.48,15.15h11.24l-.87,2.71h-7.6a.6.6,0,0,0-.41.23,1.21,1.21,0,0,0-.27.37.4.4,0,0,0,.05.38A.44.44,0,0,0,133,19h7.43l-.85,2.64H132l-.11,0-.17.12-.19.15a.92.92,0,0,0-.14.13.16.16,0,0,0-.06.13.14.14,0,0,0,0,.07.07.07,0,0,1,0,.06.94.94,0,0,0,.17.26c.09.11.14.16.17.16h7.59l-.88,2.72H127a2.38,2.38,0,0,1-1-.2,2.46,2.46,0,0,1-.77-.51,1.64,1.64,0,0,1-.44-.72,1.31,1.31,0,0,1,0-.85l1.77-5.45a2.78,2.78,0,0,1,.54-.95,5,5,0,0,1,.93-.85,4.87,4.87,0,0,1,1.15-.61A3.5,3.5,0,0,1,130.48,15.15Z"/><polygon class="cls-1" points="119.89 15.15 126.12 15.15 122.75 25.52 116.53 25.52 117.78 21.67 114.79 21.67 113.53 25.52 107.32 25.52 110.69 15.15 116.89 15.15 115.64 19.03 118.63 19.03 119.89 15.15"/><polygon class="cls-1" points="95.65 39.63 103.6 15.15 55.05 15.15 47.1 39.63 66.63 39.63 71.37 25.12 80.79 25.12 76.05 39.63 95.65 39.63"/><path class="cls-1" d="M50.87,15.15H6L.86,31.05a6.06,6.06,0,0,0-.25,3.21A6.36,6.36,0,0,0,1.87,37a7.38,7.38,0,0,0,2.3,1.92,6.12,6.12,0,0,0,3,.73H42.92l3.34-10.25H22.41c-.09,0-.26-.2-.49-.6a6,6,0,0,1-.49-1,.25.25,0,0,0,.07-.21.77.77,0,0,1,.07-.28.66.66,0,0,1,.21-.48,2.82,2.82,0,0,1,.46-.49l.62-.56a3.6,3.6,0,0,1,.6-.45,1.08,1.08,0,0,1,.34-.18H47.66Z"/><polygon class="cls-1" points="56.52 10.75 76.05 10.75 79.33 0.5 59.8 0.5 56.52 10.75"/><polygon class="cls-1" points="88.74 0.5 85.46 10.75 105.06 10.75 108.34 0.5 88.74 0.5"/><path class="cls-1" d="M20.32.5a10,10,0,0,0-4,.87,16.54,16.54,0,0,0-3.8,2.3,17.73,17.73,0,0,0-3.1,3.21,11.87,11.87,0,0,0-1.89,3.59l-.07.28H52.33L55.61.5Z"/></g></g></svg>