<?xml version="1.0" encoding="utf-8"?><svg xmlns="http://www.w3.org/2000/svg" xmlns:xlink="http://www.w3.org/1999/xlink"><symbol viewBox="0 0 344.96 344.96" id="check" xmlns="http://www.w3.org/2000/svg"><g data-name="Слой 2"><path d="M321.85 86.24l-40-23.11-23.1-40H212.5L172.48 0l-40 23.11H86.24l-23.11 40-40 23.1v46.21L0 172.48l23.11 40v46.21l40 23.11 23.11 40h46.21l40 23.1 40-23.11h46.21l23.11-40 40-23.11V212.5l23.11-40-23.11-40V86.24zM156.91 243.07a16.79 16.79 0 01-23.34 0l-50.45-50.44a16.19 16.19 0 010-22.89l13.35-13.35a16.19 16.19 0 0122.89 0l25.87 25.87 80.34-80.35a16.19 16.19 0 0122.89 0l13.35 13.35a16.19 16.19 0 010 22.89z" data-name="Capa 1"/></g></symbol><symbol viewBox="0 0 327.03 327.03" id="fb" xmlns="http://www.w3.org/2000/svg"><g data-name="Слой 2"><path d="M283 0H44.07A44.07 44.07 0 000 44.07V283a44.07 44.07 0 0044.07 44h117.82l.2-116.86h-30.36a7.15 7.15 0 01-7.16-7.14l-.15-37.67a7.16 7.16 0 017.16-7.19h30.31v-36.4c0-42.24 25.8-65.24 63.48-65.24h30.92a7.17 7.17 0 017.16 7.17v31.79a7.16 7.16 0 01-7.16 7.16h-19c-20.5 0-24.47 9.74-24.47 24v31.51h45a7.17 7.17 0 017.12 8l-4.47 37.67a7.16 7.16 0 01-7.11 6.32h-40.3L212.85 327H283a44.07 44.07 0 0044-44V44.07A44.07 44.07 0 00283 0z" data-name="Layer 1"/></g></symbol><symbol viewBox="0 0 642.59 640.26" id="insta" xmlns="http://www.w3.org/2000/svg"><defs><clipPath id="cclip-path"><path class="ccls-1" d="M418.36 561.25h-195c-74.64 0-135.7-61.06-135.7-135.69V217.73c0-74.64 61.06-135.7 135.7-135.7h195c74.63 0 135.69 61.06 135.69 135.7v207.83c0 74.63-61.05 135.69-135.69 135.69zm0-35.85a100.24 100.24 0 0099.84-99.84V217.73a100.24 100.24 0 00-99.84-99.84h-195a100.24 100.24 0 00-99.84 99.84v207.83a100.24 100.24 0 0099.84 99.84z"/></clipPath><clipPath id="cclip-path-2"><path class="ccls-1" d="M450 319.79a128.44 128.44 0 11-128.44-128.44A128.44 128.44 0 01450 319.79zm-129.06-84A84.11 84.11 0 10405 319.9a84.1 84.1 0 00-84.06-84.11z"/></clipPath><clipPath id="cclip-path-3"><circle class="ccls-1" cx="452.06" cy="189.36" r="30.41"/></clipPath><radialGradient id="cradial-gradient" cx="187.47" cy="638.68" r="646.8" gradientUnits="userSpaceOnUse"><stop offset="0" stop-color="#ffd776"/><stop offset=".25" stop-color="#f3a554"/><stop offset=".38" stop-color="#f15c3c"/><stop offset=".7" stop-color="#c32f87"/><stop offset=".95" stop-color="#6765ae"/><stop offset=".99" stop-color="#5c6cb3"/></radialGradient><radialGradient id="cradial-gradient-3" cx="186.47" cy="638.68" r="646.8" xlink:href="#cradial-gradient"/><style>.ccls-1{fill:none}.ccls-3{fill:url(#cradial-gradient)}</style></defs><g id="cСлой_2" data-name="Слой 2"><g id="cLayer_1" data-name="Layer 1"><g clip-path="url(#cclip-path)"><path class="ccls-3" d="M642.59 500c0 77.47-62.5 140.26-139.59 140.26H140.59C63.5 640.26 1 577.47 1 500V140.26C1 62.8 63.5 0 140.59 0H503c77.09 0 139.59 62.8 139.59 140.26z"/></g><g clip-path="url(#cclip-path-2)"><path class="ccls-3" d="M642.59 500c0 77.47-62.5 140.26-139.59 140.26H140.59C63.5 640.26 1 577.47 1 500V140.26C1 62.8 63.5 0 140.59 0H503c77.09 0 139.59 62.8 139.59 140.26z"/></g><g clip-path="url(#cclip-path-3)"><path d="M641.59 500c0 77.47-62.5 140.26-139.59 140.26H139.59C62.5 640.26 0 577.47 0 500V140.26C0 62.8 62.5 0 139.59 0H502c77.09 0 139.59 62.8 139.59 140.26z"/></g></g></g></symbol><symbol viewBox="0 0 22 22" id="instagram" xmlns="http://www.w3.org/2000/svg"><path d="M22 5.944v10.111A5.951 5.951 0 0116.056 22H5.944A5.951 5.951 0 010 16.055V5.944A5.951 5.951 0 015.944-.001h10.112A5.951 5.951 0 0122 5.944zm-1.777 0a4.172 4.172 0 00-4.167-4.168H5.944a4.172 4.172 0 00-4.167 4.168v10.111a4.172 4.172 0 004.167 4.167h10.112a4.172 4.172 0 004.167-4.167zm-5.217 7.95a4.903 4.903 0 01-3.239 1.941 4.89 4.89 0 01-3.662-.918 4.9 4.9 0 01-1.941-3.238 4.902 4.902 0 01.917-3.663 4.9 4.9 0 013.24-1.94c.48-.072.966-.072 1.446 0a4.898 4.898 0 012.765 1.391 4.9 4.9 0 011.392 2.765 4.902 4.902 0 01-.918 3.663zm-.84-3.402A3.138 3.138 0 0011.043 7.8a3.133 3.133 0 00-2.535 1.275 3.136 3.136 0 00-.587 2.343c.124.834.565 1.57 1.242 2.072s1.509.711 2.343.586a3.159 3.159 0 002.658-3.584zm3.284-5.054a.896.896 0 01-.26.629.897.897 0 01-.629.26.896.896 0 01-.628-.26.896.896 0 01-.26-.629c0-.234.094-.462.26-.628a.893.893 0 01.628-.26c.234 0 .463.094.629.26.165.166.26.395.26.628z"/></symbol><symbol viewBox="0 0 2478 1482.7" id="map" xmlns="http://www.w3.org/2000/svg"><g data-name="Слой 2"><g data-name="Layer 1"><path d="M2150.7 478c7.87 30.58-.36 58.39-12.27 85.9-4.45 10.29-9.74 18-21.75 22-17.46 5.73-24.83 35.08-14.18 49.69 3.39 4.66 7.26 9.22 9.47 14.43 4.46 10.51 7.53 21.53-7.68 26.38-14.57 4.64-12.24-8.39-17.23-15.33-9-12.62-9-39.1-36.64-28.78-3.25 1.21-5.13-1.27-6.23-4.24-1.3-3.48-1.24-10.87-7.32-5.8-5.23 4.36-10.25 11-11.6 17.36-1 4.8 6.17 7 11.6 6.63 16.31-1.16 33-3 10.49 18.37-6.86 6.51-2.58 13.12 2.73 18.88 26.24 28.53 21.85 58.73 4.61 89.48-6.61 11.81-16.31 19.57-29.33 24.23s-31.1 5.44-28.31 27.64c.5 4-4.67 7.15-9.64 6.61-5.35-.57-7.29-4.27-6.74-9.19.74-6.64 2.78-15.05-8.4-11.33-8.13 2.71-13.74 10-8.71 18.75 3.81 6.67 10.44 11.74 15.87 17.48 21.21 22.43 13.94 53.17-14.86 62.4-11.44 3.67-13.78-8.18-20.26-12.72-7.21-5-12.54-18.31-22.58-10.75-10.93 8.24-4.32 19.61 2.42 28.73 10.93 14.8 31.67 26.61 28.28 46.41-4.39 25.63 22.8 36.75 21.65 60.49-.37 7.67 14.68 13.05 25.27 11.74 9.93-1.23 18.89.18 26.81 5.72 10.06 7 20.62 8.6 32.77 8 11.14-.53 22.88-2.55 35.68 2.32-11.52 10.11-20.63 15.5-36.34 9.48s-33.84-7.15-51.05-8.8c-40.16-3.86-67.7-25.28-87.31-59.27-7.91-13.71-15.66-27.74-28.08-38.28-3.84-3.25-8.85-7.57-5.1-12.64 4.2-5.66 10.33-2.43 15.77-.07 6 2.59 10.43 14.53 17.39 7.3 6.15-6.41-.6-15.36-5.82-21-9.42-10.23-6.85-22.74-9.36-34.47-3.33-15.62 3.62-40.72-27-37.71-5.35.52-6.49-4.52-7.66-8.89-1.1-4.13-2.12-8.64-4.53-12-19-26.62-26.22-42.76-58.6-10.24-8.65 8.69-17.79 16.9-26.26 25.76-15.39 16.1-18.12 37.15-7.86 57.15 1.65 3.21 3.88 6.18 5.13 9.52 2.64 7 4.89 15.65-4.22 18.42-10.51 3.2-10.66-6.38-11.84-13.44-.46-2.71-1-5.4-2-10.45-15.86 13.62-20.82 4.16-27.18-9-11.59-24.07-25.17-47.17-31.07-73.62-.61-2.75-1.86-7.53-3.12-7.63-22.56-1.85-28.84-24.63-45-34.43-3.58-2.17-7.88-4.52-11.83-4.48-20.82.22-41.56-.28-63.34-5.05.93 4 .7 6.86 1.91 7.78 26 19.7 27 29.87 1.65 52.71-21.14 19.07-47.38 29.8-73.57 40.36-8.38 3.37-24.94 2.6-21.66 14.81 2.74 10.22 16.53-.08 25.33 1 9.61 1.16 20.95-10.63 28.06-.28 6.76 9.85-2.34 20.39-6.6 30.23-8.24 19-20.63 34.19-37.44 46.71-12 9-21.83 21-32.64 31.61-14.61 14.39-15.84 31.69-10.29 50 12.65 41.85 11.35 46.34-23.46 73.85-9.86 7.8-18.85 15.52-14.27 30.66 1.5 4.93.69 14.26-2.47 16.29-20.74 13.35-24.79 37.82-38.59 55.79-21.93 28.58-52.29 30.86-83.22 33.57-9.37.82-12.55-6.74-15.23-15.21-11.66-36.89-22.92-74-37-110-6.61-16.93-8.11-32.17-.6-47.91 13.56-28.38 6-54.15-12-76.16-10.9-13.32-15.51-25.09-10.31-41.1 4.32-13.32-2.51-15.65-14.2-22-24.53-13.26-46.33-13.14-72-5.69-10.51 3-23.85 2.34-35.84 3.07-20.37 1.24-33.35-14.38-46.09-28-5.87-6.27-9.68-14.66-16-20.22-15.41-13.46-20.89-28.54-13-48.21a30.11 30.11 0 001.32-17.08c-8.69-36.5 13.9-58.14 37.54-78.66 7.4-6.42 14-11.68 15.31-22.1 1.22-9.74 7-16.8 15.25-22.58 13.28-9.3 18.15-18.68-.49-28.82-10.54-5.73-14.14-41.52-6.24-56.22 6.72-12.53 18.47-7.77 29.08-6.55 7.65.88 16.51 3.74 21.52-5.12 4.89-8.64 3.28-18.52-4.19-23.67-24.5-16.86-6.41-21.1 7.15-27.07 4.51-2 9.11-3.76 14-5.78-3.31-6.67-7.79-2.76-11.22-2.17-30.66 5.27-33.27 2.31-24.71-28.29 1.19-4.27 7.36-8.37.87-13.37-7.78 0-6.52 6.69-7.45 11-2.59 12-11.35 16-21.82 18-3.8.72-8.26-.37-9-4.07-2-9.38-1.45-19.77 5.33-26.46 10.6-10.46 27.17-16.14 20.15-36.92-1.36-4 8.49-6.53 13.85-8.15 6-1.81 11.46 2.64 11.77 7 2 27.95 25.78 44.88 34.26 71.14 10.08-10 16.94-22.15 30.75-26.79 7.09-2.38 6.07-10.62 6-17.18 0-8.07-.11-16.6 9.2-20.06 10.94-4.07 6.15 11.57 14 12-.69-24.54-2.67-26.41-22.15-20.45-6.81 2.08-12.86 1.65-17.82-3.88-9.9-11-8.46-43.92 3.43-53.21 25.93-20.25 44.83-44 44.46-78.86 0-1.34.52-3.31 1.49-3.94 23.72-15.49 45.73-44.56 75.29-35.36 30.78 9.58 62.74 21.62 89.54 41.93 2.59 2 4.34 5.83 5.16 9.14 1.06 4.22.24 9.3 7.23 7.2 5.59-1.68 4.77-5.89 4.81-10.44.07-7-8.24-17.45 3.45-20.14 12.84-3 12 10.43 14.34 25.63 18.37-35.23 49.94-32.45 75.83-40.88-1.63-9.28-14.64-9.42-12.47-21.12 12.15 2.39 24 4.13 35.51 7.14 12.1 3.17 14.61-1.55 11.27-11.95-6.25-19.48 1.9-37.91 1.66-60.62 13.08 9.87 25.85 14.18 26.31 27.94 19.2-11.38 26.31-35.39 47.08-46.19 4.3-2.23 9-2.87 7.42-10.65-3.63-18.2 15.68-49 35.15-52.65 15.43-2.93 18.12-10.12 17.71-23.57-.7-23.07 4.79-26.26 24.62-15.72 8.47 4.5 16.19 6 26.5 3.79 22.89-4.89 41.57 13 38.24 36.5-2.45 17.2 4.93 21.5 19.15 18.7 14.92-2.94 29.31-6.15 44.15.7 4.37 2 9.67.55 13.57-4.07 16.66-19.76 31-19.92 47.44-.72 4.22 4.92 7.18 11.25 12.14 15.1 4.11 3.19 11.06 18.09 15.24-1.17 2-9.07 12.7-3.2 18.82-7.2 8.26-5.41 23-4.83 14.41-21.73-2.14-4.23-.32-12.29 4.85-12.89 20.22-2.34 41.24-11.87 60.76-2 16.77 8.51 31.43 16.3 49.54 4.19 8.42-5.63 19.86-6.39 26 1.8 17.27 23 37.36 10.66 50.8.54s18.43-7.22 27.79 8.75c-6.33-25.85-6.24-25.53 14-30.66 30.83-7.83 59.91 6 90 6.78 3.5.1 7.06 2.77 10.42 2.46 33.93-3.11 41.18 3.1 44.92 38.2 1.37 12.81-8.15 11.86-15.51 12.59s-21.33-2.83-19.72 5.82c2.42 13-7.84 27.29 3.88 38.74 4.12 4 8.85 7.46 13 11.52 8.73 8.62 15 16.6-1.76 24.25-13.39 6.11-15.15 20.18-18.35 32.76-2.43 9.59-2.37 19.93-18.17 18-9.36-1.17-14.62 10.54-22.76 15.09-3.83 2.14-3.27 6.17 1 8.46 2.44 1.31 5.12 2.18 7.69 3.25-12.3 26.61 21.9 43.76 14.32 68.87-5 16.7-4 34-7.56 50.65-1.52 7.17-7.89 13.75-13.26 5.1-14.7-23.68-37.19-44.83-37.26-74.51-.06-23.37 6.35-46.77 10-70.14.76-4.89 3.44-9.66-.46-16.43-6 7.53-9.66 20.72-23.31 8.89-8.21-7.12-15.15-.65-16 9.16-.69 7.8.47 15.77.95 23.66 1 15.43-8.18 19.18-20.49 15.75-25.51-7.1-56.86 10.11-63.44 35.76q-3.24 12.58-7.08 25c-4.38 14.19 4.67 23.32 19.27 25.4 11.22 1.59 26.5-8 32.6 2.77 11 19.4 28.83 36.81 27.25 61.46-.62 9.6 2.07 16.79 7.23 23.95 3 4.11 7.18 8.1-.55 12s-10.12-.46-12.23-6.76c-5.83-17.04-11.81-33.92-17.68-50.83zM1113.33 688.19c8.55 6 16.09 5.8 22.52 2.77 21.58-10.17 44.58-10.37 67.63-12.44 16.12-1.45 22.79 3.59 23.88 19.16.61 8.78 52.46 38.49 60.07 34.77 2.25-1.1 4.11-4 5.08-6.53 5.56-14.33 16.23-12.57 26.84-8 22 9.36 44.93 9.5 68 8.56 18.12-.74 19.34-15.89 20.67-28.11 1.59-14.53-10.31-9.33-18.34-9.63-25.12-.94-52.47 1.56-57.23-34-.5-3.77-3-7.09-7.53-5.4-4.67 1.76-7 6.18-4.59 10.48 5.51 10 1.73 17.76-6.81 21.59-11.25 5-14.17-6.53-19-13-3.42-4.59-7.3-9.72-8.27-15.09-5-27.87-31-32.18-48.9-45.58 5.42 9.49 11.16 18.23 20.39 24.43 23.91 16 23.93 19.89 5.15 42.72-9.32 11.32-16.83 10.45-25.51-.66 25.32-13.33 25.29-14.71 1.5-31.83a127.72 127.72 0 01-15-12.36c-15-14.67-41.59-8.27-57.2 5-19.25 16.41-15.92 54.57-53.35 53.15zM1331 443.1c-45.87 1.72-45.66 1.66-52.68-22.43-1.39-4.77.26-13.73-8.29-12.5-7.19 1-9.14 8.45-10.11 15.1-1 6.81 2.22 12.47 4.86 18.48 3.65 8.3-8.12 46.69-15.17 52.07-5.2 4-17 5.32-13 13.61 5.29 10.94 13.29.19 20.17-1.53a85.42 85.42 0 0114.75-2.3c6.56-.46 10.13-3.35 12.35-9.82 13.21-38.34 13.36-38.29 47.12-50.68zm90.26 193.62c8.27-.25 14.4 1.12 19.11-3.12a5.09 5.09 0 00-.4-7.7c-12-8.38-21.82-23.2-38.54-20-10.37 2-17.88 2.56-24.57-6.44-3.38-4.55-8.87-6.36-13.05-1.73-7.81 8.65-13.66 19-12.89 30.91.45 6.83 8.09 8.88 13.63 7.07 20.05-6.54 39.65-5.56 56.74 1.01zM1512 645c-2.09 8-2.78 10-3.16 12.13-1.64 9.08 4.24 13.07 11.27 15.88 6.17 2.46 13.26 4.3 17.79-1.9s-.13-12.14-3.53-17.7c-8.14-13.33-10.82-29.4-22.22-41.32-5.83-6.1-2.73-13.47 3.81-18.62 2.94-2.32 5.76-4.86 2.72-8.72-2.52-3.2-6.33-2.85-9.94-2.16-20.3 3.86-25.58 20-13.32 39.29 5.79 9.19 18.18 15.12 16.58 23.12zm-105 118.1c23.86 33.73 26.09 81.07 66.25 105-14.49-39.55-39.25-72.9-66.25-105zM743.53 535.58c-22.53 5.74-39.21 31.92-63.47 6.34 2.64 10.31 11.31 14.85 9.31 25.81-1.7 9.35 7.73 14.62 17.83 12.58 4.67-.95 8.78-2.42 10.19 3.63 1.21 5.21-2.46 9-6.6 9.7-15.73 2.81-28.09 21.36-47.48 9-5.61-3.58-17.5.38-19.13 6.28-5.5 19.86-24.37 23.93-36.65 35.6-9.72 9.25-18.31 20.34-20.37 34.91-2.38 16.8-18.15 21.89-29.36 29.92-14.28 10.21-21.16 21-14.66 38.35 1.5 4 1.93 8.48 2.21 12.78.4 5.91-.05 12.82-6.26 14.86-8.56 2.81-11.38-5.1-13.16-11-4.25-14-7.55-31-25.9-28.93-24.65 2.72-50.63 2.49-73.38 13-19.46 9-23.55 61.43-8 76.51a24 24 0 0035.95-2.78c4.36-5.75 7.26-12.65 15.05-14.71 5.6-1.47 11.57-3.46 16.54.82s1.21 9.25-.39 13.87-3 9.66-4.93 14.33c-4.25 10.4-3 16.72 10.28 16.46 20.86-.41 25.95 9.88 21.31 29.39-3.75 15.76 3.45 24.11 21.12 23.52 16.33-.55 31.06-1 44.57-13.5 7.88-7.31 20-13.07 33.39-6.5 18.24 8.92 37.46 11.42 58.12 8.29 16.2-2.45 17.68 17.75 29.7 24.2 10.08 5.41 18.53 12.52 30.84 13.71 13.68 1.32 25.88 8.72 30.25 21.78 11.16 33.3 41 38.85 68.16 44.63 18 3.84 32.34 12.11 46.34 21.61 14.75 10 14.57 25.31 3.43 37.67-15.28 17-22 35.47-24 58.32-2.06 23.78-9.42 46.17-39.42 52.53-15.55 3.3-24.38 15.81-29 33.84-7.14 27.62-21.1 53.17-47.64 68.62-1.82 1.06-5.09 2.77-4.92 3.67 6.44 35.54-35.94 30.34-45.93 54.09-3.35 8 5.2 13.28-2.46 22.21-7.86 9.15-22.76 26.06-4.3 42.61 4.18 3.75-1.82 10.62-4.19 15.8-10.79 23.59-8.2 36.42 10.48 53.29 3.46 3.12 10.89 4.36 8.2 10.84s-9.91 8.62-16.29 9.06c-17.21 1.18-33.77-7.94-41.74-19.24-19.31-27.4-35.65-57.5-23.53-94.23 5.07-15.35-5.42-30-6.58-45.69-2.63-35.53 8.06-69.93 5.06-105.35-2-22.94-.21-46.22.44-69.34.4-13.77-4.85-25.26-16.82-30.37-23.42-10-33.86-30.42-45.13-50.55-6.67-11.9-12-24.25-22.34-34.19-10.17-9.76-3.66-48.5 9.69-63.73 8.32-9.49 16.56-18.63 13.68-32.39-2.24-10.72-.68-22.12-20.71-16.58-17.1 4.73-33-8.91-42.51-24.13-6.71-10.74-16.91-14.19-26.39-20.48-28.15-18.7-63.34-16-91.77-33-15.08-9-27.09-16.61-29.59-38.18-2.46-20.94-23.76-35.14-36.35-60.14-.32 20.16 8.7 31.75 12.43 48.24-21.71-10-29-28.27-35.61-42.71-10.81-23.48-17.09-47.38-33.77-69.76-20.77-27.86-22.31-64.84-8.41-99.58 5.08-12.72 10.7-25.34 11.79-39.28.29-3.6 1.88-8.19.3-10.68-17.14-26.89-3.39-60.29-16.61-86.21-10-19.62-14.73-39-18.86-59.76-5.42-27.2-32.91-34.66-49.91-51.58-6.56 7.64-15.25 9.94-24.93 10.83-7.65.7-13.84 8.62-22.65-2.13-6.1-7.44-8.34 3.64-8.06 8.28 1.25 20.49-4.9 30.78-27.29 22.59-8-2.93-13.45 3.93-19.55 7.12a200.49 200.49 0 01-61.12 20.34L0 395.37c17.61-8.81 35.78-16.68 52.63-26.75 11.91-7.13 33-16.05 3.22-29.16-3.64-1.6-3.87-5.73-4-9.43-.69-15.56-13.28-18.15-29.31-22.09 14.53-6.45 19.26-15.58 24.54-25.79 7.93-15.35 21.25-27 41.23-26.63 4.51.09 11.07-.5 12.34-6.75s-4.72-6-8.46-7.48c-8.25-3.22-19.94-2.59-18.28-16.69 1.1-9.3.87-19.19 12.68-22.62 11.5-3.33 23.41-10.89 32.55 8.78 4.34-16.1 2.29-28.08.69-39.8-1.23-9-.08-18.33 9-19.06 24-1.93 41.22-19.68 63.71-25 18.13-4.31 33.11-5.31 45.3 12.71 11.46 16.95 33.68 23.26 46.2 37.48 21.48 24.38 43.92 27.17 73.14 21.09 24.37-5.08 38.47 18.17 57.24 28.46 5.84 3.2 9.86 10.15 19.75 13.46-2.38-24.26 12.76-22 29.43-19.91-14.51-4.71-32.37-6.11-20.77-26.69-5.93-4.87-9.93-.85-14.05-1.11-6.34-.4-13.49 1.44-15.69-7.58-1.78-7.28-2.64-13.89 4.07-19.77 7.59-6.65 15.27-13.53 21.27-21.55 5.87-7.83 10.8-16.89 22.06-12.58 11.77 4.5 23.94 8.48 27.78 24.1 6.52 26.58 18.64 31.4 42.16 18.84 5.79-3.09 11.83-7.92 17.38-1.17 5.92 7.22-1.6 11.39-5.34 16.34-11.39 15.08-19.32 30.93-7.38 49.38 5.7 8.8-3 14.44-4.36 21.75 29.4-.59 38.41-14.23 28-38.64-3.76-8.82-15.43-21.52-3.17-28.9 11.62-7 21.52-33.59 41.76-10 4.24 5 8.62-3.1 13.56-3.24 8.58-.24 16.75 2 20.17 9.73 3.16 7.18-3.78 13.58-9 15.37-26.36 8.93-26.17 30.27-27.83 52.32-1.13 15.1 16 20 12.82 36.55 16.62-9.79 22-17.88 10-32.44-12.22-14.85-6.28-30.32 4.39-43.18S641.73 188 664 198.87c7.55 3.69 16.74 3.95 25.08 6.15 7.93 2.09 17.55 5.74 17.09 14.31-1.17 22 15.63 32.9 26.53 47.33 6 7.87 13.08 17 8.31 25.28-9.07 15.81.4 24.6 9.38 33.48 8.49 8.39 15.39 14.32 3.51 26.17-11.11 11.09-19.61 12-28.07-2.07-3.87 5.54-1.11 8.43.46 11.53 5.86 11.59 9.47 22.95-3.43 32.56-14.69 10.95-28.19 6-37.22-6.5s-15-26.32-33.78-25c-3.57.25-6.33-3.88-5.93-7.82.58-5.77 4.5-9.54 10.18-9.23 21.66 1.17 26.57-18.05 39.23-28.37-5.73-6.12-9.63-2.53-13.33-1.38-4.6 1.43-9.52 6.39-13.71 1.19-5.24-6.5.68-10.6 5.34-13.86 7.8-5.46 2.59-11.89 1.52-17.69-1.56-8.4-8.71-5-14.07-5.88-8.25-1.35-7.94 4.09-10.67 9.41-7.56 14.73-10.39 32.36-27.9 41.43-9 4.68-6.13 14.51-1.21 22.93 5.7 9.75 12 21.29-9.29 14.16a12.58 12.58 0 00-8.25.45c-17.4 7.48-18.19-2.62-16.54-16.15-24.8 11-48 23.48-64.1 45.73-12.77 17.69-8.48 38.05 10.38 49.59 14.08 8.63 24.48 21.81 40.49 28.53 12.4 5.2 3.67 20.87 8.29 31.11 1.56 3.47-.57 9.46 5.35 9.45 5.22 0 6.93-5.36 6.51-9.66-1.64-16.53 5.75-27.24 19.92-34.83 5.36-2.88 8.46-9.72 6.59-15.06-7.56-21.51 8.73-38.15 10.63-57.63 1.18-12.09 8-15 19.84-12.26 22.31 5.08 35.25 19.41 34.05 40.68-.31 5.39-.5 10.49 4.63 13.33 6.82 3.78 11.3-1.5 14.47-5.94 11.6-16.28 16.73-11.3 20 5.1 4.5 22.31 6.81 45.69 28.26 60.35 3.23 2.2 6.56 7.38 6.35 11-1.18 20.1 1.28 38.57 11.84 56.72 6.1 10.49-.68 16.3-13 11.89-3.34-1.21-6.94-1.72-10.3-2.89-24.27-8.46-24.24-8.48-9.75-30.69 1.67-2.42 2.92-5 5.85-10.24z"/><path d="M638.81 116c9.07 12.94 20.1 22.53 36 12.13 7.83-5.11 19.83-10.69 2.28-22.94-17.92-12.5-4.25-31.72-1-47.52 1.43-7 8.44-13.17 13.76-18.94C695 33.2 698 23.06 707.63 25.34c8.86 2.09 3.7 13 9.17 19.76 5.66-5.38 3.82-12.09 4.43-17.78.7-6.48 3.43-12.25 9.69-12.72C755.66 12.72 778-.32 803.18 0c30.33.4 57.82 5.83 69.25 39.1 2.66 7.73 8.1 7.15 13.84 6.72 8-.61 14.16 1.27 21.67 5.53 4.72 2.65 19.24 2.65 26.33-6.15 25.32-31.3 75.9-31.89 103.6-1.55 8.3 9.09 22.24 14.73 10.66 31.17-3.29 4.65-.83 11.92 8.61 8.68a37.45 37.45 0 0110.58-2c7.57-.3 14.75 1.54 18.76 8.51 5 8.64-2.27 13.2-7.37 18-15.54 14.73-30.07 32-31 53-.93 20.56-8.58 41-2.89 61.82 1.24 4.53-1.92 6.22-3.73 9.19-12.06 19.82-26.28 37-24.17 64.48 1.41 18.29-19.72 30.93-38.58 36-18.4 4.91-36.42 9-48.12 26a11.52 11.52 0 01-7.21 4.56c-32.38 3.4-40 30.84-52.95 53.46C866.13 424 866 438.2 853.83 436c-11.49-2.08-25-6.86-30.2-18.77a177.52 177.52 0 01-15-73.62c.11-14 8.85-23.85 23.28-33.16-19.18-4.37-16.75-13.08-14.46-27.51 4.41-27.66 11.61-56 3-84.74-4.3-14.2-14.32-16.2-26.38-17.57-26.91-2.94-22.33-7.6-24.57-34.14-3-35.51 17.23-32.51 38.59-36.61 20.83-4 5.75-18.91 9.54-32.95-20.79 16.25-42.26 21.68-56.23 41.89-10.06 14.54-31.81 19.84-38.7 39.84-1.46 4.25-9.11 6.81-15.21 2.17-10.88-8.28-25.53-4.12-37-10.94-3.13-1.86-7.58-2.2-9.07 2.18s2.36 6.9 5.76 7.57c6.29 1.23 12.84 1.08 19.19 2.07 10.23 1.58 21.86 3.26 19 17.65-2.5 12.56-12.72 14.39-23.83 12.22-26.77-5.22-50.86-16.41-74.77-29.54-10.61-5.82-18.48-10.58-23.06-21.84-3.23-7.95-6.35-18.92.22-21.56 8.09-3.26 19.42-.2 28.84 2.17 7.08 1.78 9.78 8.32 6.41 15.7-2.75 6-3.22 11.37 4 14.19 4.2 1.64 5.57 10.53 12 5.63 5.46-4.18 5.13-9.8.6-15.14-8-9.44-8.61-18.07 3.19-25zM2318 1215.47c-1.64 21.92-8 42.14-20.92 60.33-8.35 11.73-16.72 23.62-23.41 36.32-14.18 26.93-41.63 37.19-69.45 24.54-3.87-1.76-10.11-4.46-10.32-7.13-1.72-21.14-22.39-27.37-31.79-42.1-20.54-32.15-36.43-38.83-70.52-20.23-19.88 10.85-41.42 11.17-61.64 18.29-15.33 5.4-24.1-4.18-19.28-19.26s2.42-29.76.07-44.81c-7.79-49.69 4-69 46.09-76.11 23.56-4 29.54-27.72 46.35-39.39 9.05-6.29 15.62-14.79 28.34-9.22 10.61 4.65 13.6-5 17.79-11.24 9.05-13.49 39.19-16.53 50.61-4.89 4.61 4.7 1.85 9.47 0 14-3.38 8.26 0 13.42 6.54 18.39 19.25 14.66 24.33 12.92 29-10.65 1-5 1.85-10 3.2-14.81 1.48-5.35 1.55-12.79 8.62-13.35 6.31-.51 6.78 6.53 8.61 11a639.44 639.44 0 0056.11 105.58c5.1 7.83 6.51 15.8 6 24.74zm-6.6-157.31c-1.92 8.81-5.28 9.32-9.1 9.16-8.31-.33-15.49-3.11-21.07-9.51-8-9.14-14.7-13-27-3.32s-35.07-2.47-39.67-18.73c-3.93-13.92-17.08-14.72-27.35-18.28-8.49-3-16.59-4.35-19.1-14.47-1.45-5.87-13.82-10.83-2.88-17.47 7.3-4.44 17-2.56 20.78 5.51 5.13 11 9.93 10.31 19.87 5.79 18.36-8.35 76.66 16.91 84.12 36.67 3.52 9.33 7.48 16.92 15.57 22.26a21.8 21.8 0 005.83 2.39zm-132.78-443.79c.35-18.52-11.12-34.51-4.69-53.51 3.64-10.76 5.54-17.61 15.43-7.57 6.86 7 22.51-2.12 22.36 11.2-.12 11.22-9.85 17.59-21.6 20.41-8.93 2.14-3.19 8.45-.36 11.49 16.51 17.77 11.32 40.1 9.94 59.81-1.3 18.55-24.52 18.78-37 28.5-6.49 5-16.27 5.86-20.77 14.2-2.75 5.1-2.89 15.4-11.93 9.79-6.42-4-10.5-12.88-7.21-21 4.64-11.47 13.07-19.43 24.15-26.31 17.17-10.68 34.67-23.06 31.68-47.01zm-125.34 312.89c5.64 2.61 13.59 7.22 12.91 12.7-3.06 24.84-5.05 51.11-20.74 71.41-9.47 12.25-24.25-.42-36.35-1.87-13.51-1.63-15.72-15.43-18.85-26.47-3.17-11.21 4.7-14.74 13.13-18.75 15.18-7.22 26.29-20 39-30.65 3.2-2.69 5.04-7.32 10.9-6.37zM542.3 120.38c7.15-6.07 12.18-19.17 16.23-14.27C565 113.9 572.62 123.6 572.4 136c-.25 13.46-10.77 9.13-17.27 10.31-10.53 1.91-21.4 1.89-32.08 3.07-8.93 1-13.55-2-18.4-10.52-7.38-12.86-9.65-28.56-21.33-39.14-3.93-3.56-3.18-9 1.21-10.91 15.48-6.55 29-20 48-15 3.92 1 6.08 5.34 3.48 8.55-11.91 14.69.59 24.86 6.29 38.02zM1243.62 143c9.26 10.54 14.4 15.63 18.61 21.39s9.8 13 .82 18.4c-7.5 4.54-11.55-1.58-14.29-8.21-.64-1.56-2.69-2.55-4.11-3.82-7.62 8.87-2.71 26.8-13.63 28.12-14.34 1.73-16.35-15.12-22-25.6-1.87-3.51-6.85-5.21-9.5-8.48-10.73-13.23-5.51-30.41 11-32.86 13.8-2 21.18-17.37 36.91-15 10.75 1.6 26.53-4 27.27 12 .75 14.85-12.81 18.55-31.08 14.06zm1205.22 1162.62c10.58 18.07 12.89 36.75 27.77 48.13 4.41 3.37-2.77 10-6.37 14.38-25.85 31.64-60.8 54.07-86.67 85.79-5.27 6.45-16.34 13.29-22.52 6.56a18.09 18.09 0 015.24-28.23c24.77-13.16 37.78-43.25 68.78-47.08 1.55-.19 4.16-3 4-4.33-3.08-22.38 17.51-42.66 5.88-65.79-.43-.81.95-2.52 3.89-9.43zm-916.08-207.34c-7.55 25-15.4 52-28.08 77.25-3.61 7.18-11.29 8.62-18.87 7.66-8.39-1.07-12-6.81-13.55-14.64-3.7-18.51 13.49-58.93 29.67-70.06 4.08-2.8 7.33-6.8 11-10.25 3.95-3.76 6.23-11.81 13-9.1s6.53 10.48 6.83 19.14zM1444.07 258c1.38-13 2.68-29.56 5-46 2.57-17.94 33.93-49.57 50.53-52 4-.59 7.45.48 9.39 3.78 4.09 6.95.8 12.67-4.39 17.2-16.17 14.12-28 30.69-33.37 51.93-3.91 15.54-5 29.85 7.4 42.37 5.54 5.58 7.68 11.46-2.92 13.71-12.48 2.71-32.27-14.6-31.64-30.99zm645.04 589.36c-2.13 6.45-1.93 11.92 4.57 15.11 19.88 9.77 23 30.66 31.65 47.82 3.41 6.8 2.39 14-2.73 20.19-3 3.58-7.47 7.08-10.88 3.88-6.34-5.92-20.28-8-18.16-17.74 2.58-11.85-10.66-21.58-1.95-33 2.2-2.87.69-4.94-3.34-4.94-23.43 0-17.5-19.27-19.47-31.91-1-6.44-.16-18.17 11-17.43 10.63.72 9.96 10.29 9.31 18.02zM1023 404.55c-18.54-.27-26.92-10.68-29.39-28-1.44-10.11 3.82-15.2 11.79-12.26 10.56 3.88 19.8.89 29.57-.56 10.24-1.54 19.1-.11 22.67 11.15 3.65 11.55-3.64 17.35-12.64 21.84-7 3.52-13.73 8.06-22 7.83zm606.39-322.16c-28 0-49.73-16.63-51.22-36.65-.45-6 .19-11.86 5.38-15.54 6.19-4.4 11.49.32 15.3 4 7.86 7.52 15.8 13.44 26.66 17 10.11 3.28 14.33 14.31 14.22 24.64-.08 7.84-7.95 6.33-10.34 6.55z"/><path d="M639 116.14c-.19-8.68 7.8-23.52-13.08-16.39-3.06 1-11 1.63-10.71-6.53.4-13.21-7.41-29 7.43-38.13 8.9-5.5 15.1 3.93 17.69 10.85 4.93 13.15 24.89 16.48 18.17 39.05-4.85 16.27-10 13-19.66 11zm1272.39-59.41c10.29.32 21 .56 22.31 14.26.82 8.71-19.7 25.77-29.74 22.91-10.63-3-26.12-2.79-28.87-16.65-2.24-11.33 16.68-21.04 36.3-20.52z"/></g></g></symbol><symbol viewBox="0 0 200 162.54" id="twitter" xmlns="http://www.w3.org/2000/svg"><g data-name="Слой 2"><path d="M200 19.24a82.12 82.12 0 01-23.57 6.46 41.15 41.15 0 0018-22.7 82.16 82.16 0 01-26.05 10A41.07 41.07 0 0098.5 50.38 116.49 116.49 0 0113.92 7.51a41.09 41.09 0 0012.7 54.78A40.86 40.86 0 018 57.16v.52a41.06 41.06 0 0033 40.23 41 41 0 01-18.53.7 41.07 41.07 0 0038.33 28.5 82.36 82.36 0 01-51 17.56 83.3 83.3 0 01-9.8-.57 116.17 116.17 0 0062.9 18.44c75.47 0 116.74-62.53 116.74-116.75 0-1.78 0-3.55-.11-5.31A83.35 83.35 0 00200 19.24z" data-name="Layer 1"/></g></symbol><symbol class="gsvg-inline--fa gfa-youtube gfa-w-18" viewBox="0 0 576 512" id="youtube" xmlns="http://www.w3.org/2000/svg"><path d="M549.655 124.083c-6.281-23.65-24.787-42.276-48.284-48.597C458.781 64 288 64 288 64S117.22 64 74.629 75.486c-23.497 6.322-42.003 24.947-48.284 48.597-11.412 42.867-11.412 132.305-11.412 132.305s0 89.438 11.412 132.305c6.281 23.65 24.787 41.5 48.284 47.821C117.22 448 288 448 288 448s170.78 0 213.371-11.486c23.497-6.321 42.003-24.171 48.284-47.821 11.412-42.867 11.412-132.305 11.412-132.305s0-89.438-11.412-132.305zm-317.51 213.508V175.185l142.739 81.205-142.739 81.201z"/></symbol></svg>